<svg xmlns="http://www.w3.org/2000/svg" xmlns:xlink="http://www.w3.org/1999/xlink" width="49.87799072265625" height="49.8779296875" viewBox="0 0 49.87799072265625 49.8779296875" fill="none">
<rect  x="0" y="0" width="49.8779907610614" height="49.8779907610614" rx="7.9804785217698235"    fill="#07A081" >
</rect>
<path d="M18.6257 33.6476L25.6994 33.6476L25.6994 26.8692L27.8321 26.8692C27.9245 26.8693 28.0169 26.8671 28.1092 26.8626C28.2014 26.8581 28.2936 26.8513 28.3855 26.8423C28.4775 26.8334 28.5691 26.8222 28.6606 26.8086C28.752 26.7952 28.843 26.7794 28.9337 26.7614C29.0243 26.7435 29.1144 26.7232 29.204 26.7009C29.2937 26.6785 29.3827 26.6539 29.4711 26.6271C29.5596 26.6003 29.6473 26.5714 29.7343 26.5403C29.8214 26.5093 29.9076 26.476 29.9929 26.4407C30.0783 26.4054 30.1627 26.3681 30.2462 26.3286C30.3298 26.2891 30.4123 26.2476 30.4938 26.2041C30.5753 26.1606 30.6557 26.1151 30.735 26.0676C30.8144 26.0202 30.8924 25.9708 30.9692 25.9195C31.0461 25.8682 31.1216 25.8151 31.1958 25.76C31.27 25.705 31.3429 25.6483 31.4144 25.5896C31.4858 25.5311 31.5557 25.4708 31.6243 25.4088C31.6928 25.3467 31.7596 25.2831 31.825 25.2177C31.8903 25.1525 31.9541 25.0855 32.0161 25.0171C32.0783 24.9487 32.1386 24.8787 32.1972 24.8073C32.2558 24.7359 32.3127 24.6631 32.3678 24.5889C32.4228 24.5147 32.476 24.4392 32.5274 24.3624C32.5787 24.2856 32.6281 24.2076 32.6757 24.1283C32.7232 24.0491 32.7688 23.9688 32.8124 23.8873C32.856 23.8059 32.8975 23.7234 32.937 23.6398C32.9765 23.5563 33.0139 23.4718 33.0493 23.3864C33.0847 23.3011 33.1179 23.2149 33.149 23.1279C33.1803 23.0409 33.2092 22.9533 33.236 22.8648C33.2629 22.7764 33.2875 22.6874 33.3099 22.5977C33.3324 22.5081 33.3526 22.4181 33.3707 22.3274C33.3888 22.2368 33.4045 22.1457 33.4181 22.0544C33.4316 21.963 33.4429 21.8713 33.452 21.7794C33.4611 21.6875 33.468 21.5954 33.4725 21.503C33.4769 21.4107 33.4792 21.3184 33.4792 21.226C33.4792 21.1336 33.4769 21.0413 33.4725 20.949C33.468 20.8567 33.4611 20.7646 33.452 20.6727C33.4429 20.5807 33.4316 20.489 33.4181 20.3977C33.4045 20.3063 33.3888 20.2153 33.3707 20.1246C33.3526 20.034 33.3324 19.9439 33.3099 19.8543C33.2875 19.7646 33.2629 19.6756 33.236 19.5872C33.2092 19.4988 33.1803 19.4111 33.149 19.3241C33.1179 19.2371 33.0847 19.1509 33.0493 19.0656C33.0139 18.9802 32.9765 18.8958 32.937 18.8122C32.8975 18.7287 32.856 18.6462 32.8124 18.5647C32.7688 18.4833 32.7232 18.4029 32.6757 18.3237C32.6281 18.2445 32.5787 18.1664 32.5274 18.0896C32.476 18.0128 32.4228 17.9373 32.3678 17.8631C32.3127 17.7889 32.2558 17.7161 32.1972 17.6447C32.1386 17.5733 32.0783 17.5033 32.0161 17.4349C31.9541 17.3665 31.8903 17.2996 31.825 17.2343C31.7596 17.169 31.6928 17.1053 31.6243 17.0433C31.5557 16.9813 31.4858 16.921 31.4144 16.8624C31.3429 16.8038 31.27 16.747 31.1958 16.692C31.1216 16.637 31.0461 16.5839 30.9692 16.5325C30.8924 16.4812 30.8144 16.4319 30.735 16.3844C30.6557 16.3369 30.5753 16.2914 30.4938 16.2479C30.4123 16.2044 30.3298 16.1629 30.2462 16.1234C30.1627 16.084 30.0783 16.0466 29.9929 16.0113C29.9076 15.976 29.8214 15.9428 29.7343 15.9117C29.6473 15.8806 29.5596 15.8517 29.4711 15.8249C29.3827 15.7981 29.2937 15.7735 29.204 15.7511C29.1144 15.7288 29.0243 15.7086 28.9337 15.6906C28.843 15.6726 28.752 15.6569 28.6606 15.6434C28.5691 15.6299 28.4775 15.6186 28.3855 15.6097C28.2936 15.6007 28.2014 15.5939 28.1092 15.5894C28.0169 15.585 27.9245 15.5828 27.8321 15.5828L18.6257 15.5828L18.6257 33.6476ZM29.3624 37.2608L14.9636 37.2608L14.9636 11.9707L27.8321 11.9707C27.9769 11.9686 28.1215 11.9699 28.2663 11.9747C28.4109 11.9794 28.5554 11.9876 28.6996 11.9991C28.844 12.0106 28.9879 12.0255 29.1315 12.0438C29.275 12.0621 29.4182 12.0837 29.5607 12.1087C29.7033 12.1337 29.8452 12.1621 29.9864 12.1937C30.1276 12.2254 30.2681 12.2603 30.4076 12.2986C30.5472 12.3368 30.6859 12.3783 30.8235 12.4231C30.9612 12.4678 31.0978 12.5158 31.2331 12.567C31.3685 12.6181 31.5027 12.6725 31.6354 12.7299C31.7683 12.7874 31.8997 12.848 32.0297 12.9117C32.1597 12.9752 32.2881 13.0419 32.415 13.1116C32.5419 13.1813 32.6671 13.2539 32.7905 13.3294C32.914 13.405 33.0356 13.4834 33.1554 13.5647C33.2752 13.6459 33.393 13.7299 33.5089 13.8166C33.6247 13.9034 33.7384 13.9929 33.85 14.0851C33.9617 14.1772 34.0711 14.2719 34.1783 14.3692C34.2856 14.4664 34.3904 14.5662 34.4929 14.6684C34.5953 14.7705 34.6954 14.8751 34.793 14.982C34.8906 15.0889 34.9856 15.198 35.0781 15.3093C35.1706 15.4206 35.2605 15.5341 35.3476 15.6497C35.4346 15.7653 35.519 15.8828 35.6007 16.0023C35.6823 16.1219 35.7611 16.2433 35.8371 16.3665C35.913 16.4897 35.986 16.6146 36.056 16.7413C36.1262 16.8679 36.1932 16.9961 36.2572 17.126C36.3213 17.2558 36.3822 17.387 36.4401 17.5197C36.498 17.6524 36.5528 17.7863 36.6044 17.9215C36.656 18.0568 36.7043 18.1931 36.7495 18.3306C36.7947 18.4681 36.8366 18.6066 36.8753 18.7461C36.914 18.8856 36.9494 19.0259 36.9816 19.1671C37.0136 19.3082 37.0424 19.45 37.0679 19.5925C37.0933 19.735 37.1153 19.878 37.1341 20.0215C37.1528 20.1651 37.1682 20.309 37.1802 20.4532C37.1921 20.5975 37.2007 20.7419 37.2059 20.8866C37.2111 21.0312 37.2129 21.1759 37.2113 21.3206C37.2096 21.4653 37.2046 21.6099 37.1962 21.7544C37.1879 21.8989 37.1761 22.0432 37.1609 22.187C37.1458 22.3311 37.1272 22.4745 37.1054 22.6176C37.0834 22.7607 37.0582 22.9032 37.0295 23.045C37.0009 23.187 36.9691 23.3281 36.9339 23.4685C36.8987 23.609 36.8602 23.7484 36.8184 23.887C36.7766 24.0256 36.7316 24.1631 36.6834 24.2996C36.6352 24.436 36.5837 24.5713 36.5292 24.7054C36.4746 24.8394 36.4168 24.9721 36.3561 25.1035C36.2952 25.2349 36.2314 25.3648 36.1645 25.493C36.0975 25.6214 36.0277 25.7481 35.9549 25.8731C35.882 25.9982 35.8062 26.1215 35.7276 26.243C35.6489 26.3645 35.5675 26.4841 35.4832 26.6018C35.3989 26.7195 35.312 26.8353 35.2224 26.9488C35.1327 27.0624 35.0403 27.1738 34.9454 27.2831C34.8505 27.3924 34.753 27.4993 34.6532 27.6041C34.5532 27.7088 34.4509 27.8111 34.3461 27.9109C34.2414 28.0109 34.1343 28.1082 34.025 28.2031C33.9157 28.298 33.8041 28.3903 33.6905 28.4798C33.5769 28.5695 33.4612 28.6564 33.3435 28.7406C33.2257 28.8248 33.106 28.9062 32.9845 28.9847C32.8629 29.0633 32.7396 29.139 32.6145 29.2118C32.4895 29.2847 32.3627 29.3544 32.2343 29.4212C32.1059 29.4881 31.976 29.5519 31.8446 29.6127C31.7133 29.6734 31.5805 29.7311 31.4464 29.7855C31.3123 29.84 31.1771 29.8914 31.0406 29.9396C30.904 29.9878 30.7665 30.0326 30.6279 30.0743C30.4893 30.116 30.3498 30.1544 30.2093 30.1896C30.069 30.2248 29.9278 30.2566 29.7859 30.2851C29.644 30.3137 29.5016 30.3389 29.3584 30.3606L29.3624 37.2608Z"   fill="#FFFFFF" >
</path>
</svg>
